<svg width="280" height="53" viewBox="0 0 280 53" fill="none" xmlns="http://www.w3.org/2000/svg">
<rect x="0.5" y="0.5" width="279" height="52" fill="white" fill-opacity="0.1"/>
<path d="M100.245 20.4091H102.981V29.5369C102.981 30.3807 102.792 31.1136 102.412 31.7358C102.037 32.358 101.515 32.8374 100.846 33.174C100.177 33.5107 99.3996 33.679 98.5132 33.679C97.7249 33.679 97.009 33.5405 96.3655 33.2635C95.7263 32.9822 95.2192 32.5561 94.8442 31.9851C94.4692 31.4098 94.2838 30.6875 94.2881 29.8182H97.0431C97.0516 30.1634 97.1219 30.4595 97.254 30.7067C97.3904 30.9496 97.5757 31.1371 97.8101 31.2692C98.0487 31.397 98.33 31.4609 98.6539 31.4609C98.9948 31.4609 99.2824 31.3885 99.5168 31.2436C99.7554 31.0945 99.9365 30.8771 100.06 30.5916C100.184 30.3061 100.245 29.9545 100.245 29.5369V20.4091ZM117.299 26.9545C117.299 28.3821 117.029 29.5966 116.488 30.598C115.951 31.5994 115.218 32.3643 114.289 32.8928C113.364 33.4169 112.324 33.679 111.169 33.679C110.006 33.679 108.962 33.4148 108.037 32.8864C107.113 32.358 106.382 31.593 105.845 30.5916C105.308 29.5902 105.04 28.3778 105.04 26.9545C105.04 25.527 105.308 24.3125 105.845 23.3111C106.382 22.3097 107.113 21.5469 108.037 21.0227C108.962 20.4943 110.006 20.2301 111.169 20.2301C112.324 20.2301 113.364 20.4943 114.289 21.0227C115.218 21.5469 115.951 22.3097 116.488 23.3111C117.029 24.3125 117.299 25.527 117.299 26.9545ZM114.493 26.9545C114.493 26.0298 114.355 25.25 114.078 24.6151C113.805 23.9801 113.419 23.4986 112.921 23.1705C112.422 22.8423 111.839 22.6783 111.169 22.6783C110.5 22.6783 109.917 22.8423 109.418 23.1705C108.919 23.4986 108.532 23.9801 108.255 24.6151C107.982 25.25 107.846 26.0298 107.846 26.9545C107.846 27.8793 107.982 28.6591 108.255 29.294C108.532 29.929 108.919 30.4105 109.418 30.7386C109.917 31.0668 110.5 31.2308 111.169 31.2308C111.839 31.2308 112.422 31.0668 112.921 30.7386C113.419 30.4105 113.805 29.929 114.078 29.294C114.355 28.6591 114.493 27.8793 114.493 26.9545ZM122.117 20.4091V33.5H119.35V20.4091H122.117ZM135.344 20.4091V33.5H132.954L127.258 25.2607H127.162V33.5H124.395V20.4091H126.824L132.474 28.642H132.589V20.4091H135.344ZM152.747 20.4091V33.5H150.356L144.661 25.2607H144.565V33.5H141.797V20.4091H144.226L149.877 28.642H149.992V20.4091H152.747ZM167.063 26.9545C167.063 28.3821 166.793 29.5966 166.251 30.598C165.714 31.5994 164.981 32.3643 164.052 32.8928C163.128 33.4169 162.088 33.679 160.933 33.679C159.77 33.679 158.726 33.4148 157.801 32.8864C156.876 32.358 156.146 31.593 155.609 30.5916C155.072 29.5902 154.803 28.3778 154.803 26.9545C154.803 25.527 155.072 24.3125 155.609 23.3111C156.146 22.3097 156.876 21.5469 157.801 21.0227C158.726 20.4943 159.77 20.2301 160.933 20.2301C162.088 20.2301 163.128 20.4943 164.052 21.0227C164.981 21.5469 165.714 22.3097 166.251 23.3111C166.793 24.3125 167.063 25.527 167.063 26.9545ZM164.257 26.9545C164.257 26.0298 164.119 25.25 163.842 24.6151C163.569 23.9801 163.183 23.4986 162.685 23.1705C162.186 22.8423 161.602 22.6783 160.933 22.6783C160.264 22.6783 159.68 22.8423 159.182 23.1705C158.683 23.4986 158.295 23.9801 158.018 24.6151C157.746 25.25 157.609 26.0298 157.609 26.9545C157.609 27.8793 157.746 28.6591 158.018 29.294C158.295 29.929 158.683 30.4105 159.182 30.7386C159.68 31.0668 160.264 31.2308 160.933 31.2308C161.602 31.2308 162.186 31.0668 162.685 30.7386C163.183 30.4105 163.569 29.929 163.842 29.294C164.119 28.6591 164.257 27.8793 164.257 26.9545ZM171.568 33.5L167.822 20.4091H170.846L173.013 29.505H173.121L175.512 20.4091H178.101L180.485 29.5241H180.6L182.767 20.4091H185.79L182.044 33.5H179.347L176.854 24.9411H176.752L174.265 33.5H171.568Z" fill="white"/>
<rect x="0.5" y="0.5" width="279" height="52" stroke="white" stroke-dasharray="86 200"/>
</svg>
